# AST/ASF file generated using VICON BodyLanguage
# -----------------------------------------------
:version 1.10
:name VICON
:units
  mass 1.0
  length 0.45
  angle deg
:documentation
   .ast/.asf automatically generated from VICON data using
   VICON BodyBuilder and BodyLanguage model FoxedUp or BRILLIANT.MOD
:root
   order TX TY TZ RX RY RZ
   axis XYZ
   position 0 0 0  
   orientation 0 0 0 
:bonedata
  begin
     id 1 
     name lhipjoint
     direction 0.702568 -0.596508 0.388042 
     length 2.56661 
     axis 0 0 0  XYZ
  end
  begin
     id 2 
     name lfemur
     direction 0.34202 -0.939693 0  
     length 6.58374  
     axis 0 0 20  XYZ
    dof rx ry rz
    limits (-160.0 20.0)
           (-70.0 70.0)
           (-60.0 70.0)
  end
  begin
     id 3 
     name ltibia
     direction 0.34202 -0.939693 0   
     length 6.62538   
     axis 0 0 20   XYZ
    dof rx
    limits (-10.0 170.0)
  end
  begin
     id 4 
     name lfoot
     direction 0.10455 -0.287249 0.952133   
     length 2.26699   
     axis -90 7.62852e-016 20   XYZ
    dof rx rz
    limits (-45.0 90.0)
           (-70.0 20.0)
  end
  begin
     id 5 
     name ltoes
     direction 1.53572e-011 -4.22322e-011 1   
     length 1.12949   
     axis -90 7.62852e-016 20   XYZ
    dof rx
    limits (-90.0 20.0)
  end
  begin
     id 6 
     name rhipjoint
     direction -0.728055 -0.574632 0.373811   
     length 2.66432  
     axis 0 0 0  XYZ 
  end
  begin
     id 7 
     name rfemur
     direction -0.34202 -0.939693 0   
     length 6.66732   
     axis 0 0 -20   XYZ
    dof rx ry rz
    limits (-160.0 20.0)
           (-70.0 70.0)
           (-70.0 60.0)
  end
  begin
     id 8 
     name rtibia
     direction -0.34202 -0.939693 0   
     length 6.59288   
     axis 0 0 -20   XYZ
    dof rx
    limits (-10.0 170.0)
 end
 begin
     id 9 
     name rfoot
     direction -0.119193 -0.327479 0.93731   
     length 2.38061  
     axis -90 -7.62852e-016 -20   XYZ
    dof rx rz
    limits (-45.0 90.0)
           (-20.0 70.0)
  end
  begin
     id 10 
     name rtoes
     direction -1.53547e-011 -4.21827e-011 1   
     length 1.17899   
     axis -90 -7.62852e-016 -20   XYZ
    dof rx
    limits (-90.0 20.0)
  end
  begin
     id 11 
     name lowerback
     direction -0.000416114 0.999912 -0.0132284   
     length 2.12109   
     axis 0 0 0   XYZ
    dof rx ry rz
    limits (-20.0 45.0)
           (-30.0 30.0)
           (-30.0 30.0)
  end
  begin
     id 12 
     name upperback
     direction -0.00136371 0.99809 0.0617608   
     length 2.10067   
     axis 0 0 0   XYZ
    dof rx ry rz
    limits (-20.0 45.0)
           (-30.0 30.0)
           (-30.0 30.0)
  end
  begin
     id 13 
     name thorax
     direction -3.43026e-005 0.997776 0.0666515   
     length 2.10618   
     axis 0 0 0   XYZ
    dof rx ry rz
    limits (-20.0 45.0)
           (-30.0 30.0)
           (-30.0 30.0)
  end
  begin
     id 14 
     name lowerneck
     direction 0.0398646 0.998418 0.0396592   
     length 1.83817   
     axis 0 0 0   XYZ
    dof rx ry rz
    limits (-20.0 45.0)
           (-30.0 30.0)
           (-30.0 30.0)
  end
  begin
     id 15 
     name upperneck
     direction -0.0367268 0.961527 -0.272244   
     length 1.81975   
     axis 0 0 0   XYZ
    dof rx ry rz
    limits (-20.0 45.0)
           (-30.0 30.0)
           (-30.0 30.0)
  end
  begin
     id 16
     name head
     direction -0.0182665 0.99536 -0.0944669  
     length 1.86026  
     axis 0 0 0   XYZ
    dof rx ry rz
    limits (-20.0 45.0)
           (-30.0 30.0)
           (-30.0 30.0)
  end
  begin
     id 17 
     name lclavicle
     direction 0.924239 0.361045 0.124212  
     length 3.26878  
     axis 0 0 0   XYZ
    dof ry rz
    limits (-20.0 10.0)
           (0.0 20.0)
  end
  begin
     id 18 
     name lhumerus
     direction 1 -4.48968e-011 -2.56583e-027   
     length 4.58538   
     axis 180 -30 -90   XYZ
    dof rx ry rz
    limits (-60.0 90.0)
           (-90.0 90.0)
           (-90.0 90.0)
  end
  begin
     id 19
     name lradius
     direction 1 -4.4898e-011 -5.50375e-027   
     length 2.68935   
     axis 180 -30 -90   XYZ
    dof rx
    limits (-10.0 170.0)
  end
  begin
     id 20
     name lwrist
     direction 1 -4.48939e-011 -1.48955e-026   
     length 1.34468   
     axis 9.0955e-015 90 90   XYZ
    dof ry
    limits (-180.0 0.0)
 end
  begin
     id 21 
     name lhand
     direction 1 -4.48936e-011 -2.97907e-026   
     length 0.585058   
     axis 1.90115e-014 90 90   XYZ
    dof rx rz
    limits (-90.0 90.0)
           (-45.0 45.0)
  end
  begin
     id 22 
     name lfingers
     direction 1 -4.49082e-011 -5.96235e-026   
     length 0.471689   
     axis 3.80223e-014 90 90   XYZ
    dof rx
    limits (0.0 90.0)
  end
  begin
     id 23
     name lthumb
     direction 0.707107 -6.3489e-011 0.707107   
     length 0.677253   
     axis -90 45 -3.84942e-014   XYZ
    dof rx rz
    limits (-45.0 45.0)
           (-45.0 45.0)
  end
  begin
     id 24 
     name rclavicle
     direction -0.923098 0.371783 0.0983239   
     length 3.19656  
     axis 0 0 0   XYZ 
    dof ry rz
    limits (-10.0 20.0)
           (-20.0 0.0)
  end
  begin
     id 25 
     name rhumerus
     direction -1 -4.48976e-011 -2.5492e-027  
     length 4.4745   
     axis 180 30 90   XYZ
    dof rx ry rz
    limits (-90.0 60.0)
           (-90.0 90.0)
           (-90.0 90.0)
  end
  begin
     id 26 
     name rradius
     direction -1 -4.48941e-011 -4.36555e-027   
     length 2.93896   
     axis 180 30 90   XYZ
    dof rx
    limits (-10.0 170.0)
  end
  begin
     id 27 
     name rwrist
     direction -1 -4.49044e-011 -1.49032e-026   
     length 1.46948   
     axis 9.0955e-015 -90 -90   XYZ
    dof ry
    limits (-180.0 0.0)
  end
  begin
     id 28
     name rhand
     direction -1 -4.48826e-011 -2.97749e-026   
     length 0.405092   
     axis 1.90115e-014 -90 -90   XYZ
    dof rx rz
    limits (-90.0 90.0)
           (-45.0 45.0)
  end
  begin
     id 29
     name rfingers
     direction -1 -4.49209e-011 -5.96602e-026   
     length 0.326596   
     axis 3.80223e-014 -90 -90   XYZ
    dof rx
    limits (0.0 90.0)
  end
  begin
     id 30
     name rthumb
     direction -0.707107 -6.34776e-011 0.707107   
     length 0.468928   
     axis -90 -45 3.84942e-014   XYZ
    dof rx rz
    limits (-45.0 45.0)
           (-45.0 45.0)
  end
:hierarchy
  begin
    root lhipjoint rhipjoint lowerback
    lhipjoint lfemur
    lfemur ltibia
    ltibia lfoot
    lfoot ltoes
    rhipjoint rfemur
    rfemur rtibia
    rtibia rfoot
    rfoot rtoes
    lowerback upperback
    upperback thorax
    thorax lowerneck lclavicle rclavicle
    lowerneck upperneck
    upperneck head
    lclavicle lhumerus
    lhumerus lradius
    lradius lwrist
    lwrist lhand lthumb
    lhand lfingers
    rclavicle rhumerus
    rhumerus rradius
    rradius rwrist
    rwrist rhand rthumb
    rhand rfingers
  end

#!OML:ASF H:\Punching\Project 1\Capture day 1\Session 1\female.ASF
:FULLY-SPECIFIED
:DEGREES
242
root 1.03514 14.4783 1.93698 17.6992 -11.7126 -3.15349
lowerback 3.04906 -0.642659 0.591915
upperback -4.65859 -0.850081 -0.272609
thorax -6.56592 -0.461105 -0.541145
lowerneck -7.40154 5.95599 16.254
upperneck 28.5351 5.70338 -1.4632
head 11.0999 4.09919 -2.59117
rclavicle -5.06901e-015 -3.97569e-015
rhumerus 1.69044 30.5028 -84.2097
rradius 130.665
rwrist -46.9418
rhand -10.7343 -13.7501
rfingers 7.12502
rthumb 15.2765 -43.1659
lclavicle -5.06901e-015 -3.97569e-015
lhumerus 17.4787 -38.3808 81.0944
lradius 137.708
lwrist 6.76954
lhand -29.8141 7.29115
lfingers 7.12502
lthumb -3.13793 37.2478
rfemur 8.55136 5.90213 7.36189
rtibia -2.8625e-014
rfoot -19.7501 -34.8161
rtoes -0.742944
lfemur -54.0905 1.27955 -10.0036
ltibia 57.7326
lfoot -15.9504 10.9311
ltoes -4.17727
243
root 1.03478 14.4728 1.92224 17.8601 -10.4605 -2.87743
lowerback 3.01438 -0.377284 0.625728
upperback -4.67757 -0.491338 -0.283779
thorax -6.56096 -0.285153 -0.603288
lowerneck -7.72769 5.23548 15.4612
upperneck 28.1322 4.65108 -0.950276
head 10.8547 3.58323 -2.40652
rclavicle -2.32578e-014 3.57812e-015
rhumerus 2.38623 29.1958 -83.1624
rradius 129.689
rwrist -46.3257
rhand -11.5231 -14.3725
rfingers 7.12502
rthumb 14.5165 -43.8447
lclavicle -2.32578e-014 3.57812e-015
lhumerus 17.3165 -39.2834 81.7639
lradius 137.453
lwrist 6.91889
lhand -29.5989 7.30577
lfingers 7.12502
lthumb -2.93013 37.2654
rfemur 8.79559 4.56253 7.47026
rtibia 2.8625e-014
rfoot -20.0814 -35.5079
rtoes 0.37881
lfemur -54.6915 0.819587 -10.3079
ltibia 57.4244
lfoot -15.6267 10.236
ltoes -4.07475
244
root 1.03386 14.4655 1.9045 18.0262 -9.14573 -2.59822
lowerback 3.01943 -0.0746802 0.738738
upperback -4.71134 -0.0786779 -0.319118
thorax -6.59353 -0.0872649 -0.739368
lowerneck -7.99288 4.45256 14.5988
upperneck 27.6618 3.54022 -0.405876
head 10.5827 3.03393 -2.20416
rclavicle 1.3418e-014 5.96354e-015
rhumerus 3.13145 27.712 -82.0609
rradius 128.58
rwrist -45.572
rhand -12.3774 -14.9788
rfingers 7.12502
rthumb 13.6933 -44.5083
lclavicle 1.3418e-014 5.96354e-015
lhumerus 17.1844 -40.2108 82.3166
lradius 137.207
lwrist 7.11804
lhand -29.3959 7.33454
lfingers 7.12502
lthumb -2.73408 37.2968
rfemur 9.01875 3.16699 7.56569
rtibia 2.54444e-014
rfoot -20.1266 -35.8621
rtoes 1.14951
lfemur -55.3414 0.342426 -10.6102
ltibia 57.1479
lfoot -15.2619 9.45382
ltoes -3.97834
245
root 1.03247 14.4561 1.88376 18.1933 -7.78917 -2.32498
lowerback 3.06832 0.258578 0.920056
upperback -4.7445 0.379533 -0.364253
thorax -6.64735 0.129282 -0.928448
lowerneck -8.23673 3.62607 13.6734
upperneck 27.1448 2.39238 0.156826
head 10.3055 2.46075 -1.98578
rclavicle -1.15295e-014 -1.59028e-015
rhumerus 3.99222 26.0684 -80.8718
rradius 127.263
rwrist -44.5316
rhand -13.1298 -15.5964
rfingers 7.12502
rthumb 12.9681 -45.1734
lclavicle -1.15295e-014 -1.59028e-015
lhumerus 17.1065 -41.1274 82.7446
lradius 136.973
lwrist 7.38362
lhand -29.2012 7.36538
lfingers 7.12502
lthumb -2.546 37.3299
rfemur 9.2203 1.73904 7.65059
rtibia -1.27222e-014
rfoot -19.7958 -35.9312
rtoes 1.59586
lfemur -56.0282 -0.1369 -10.9128
ltibia 56.9086
lfoot -14.8674 8.61585
ltoes -3.86042
246
root 1.03108 14.4443 1.86142 18.3429 -6.39612 -2.05085
lowerback 3.15466 0.608811 1.1557
upperback -4.76356 0.865047 -0.406439
thorax -6.70291 0.356523 -1.14845
lowerneck -8.46616 2.77037 12.6905
upperneck 26.6009 1.22989 0.717973
head 10.0361 1.87319 -1.75665
rclavicle 1.14301e-015 9.54166e-015
rhumerus 5.01517 24.2801 -79.5766
rradius 125.658
rwrist -43.0881
rhand -13.6042 -16.3034
rfingers 7.12502
rthumb 12.5107 -45.9089
lclavicle 1.14301e-015 9.54166e-015
lhumerus 17.0944 -41.9918 83.0538
lradius 136.755
lwrist 7.71731
lhand -29.01 7.40769
lfingers 7.12502
lthumb -2.36135 37.3744
rfemur 9.43159 0.285914 7.71634
rtibia 4.13472e-014
rfoot -19.1204 -35.8389
rtoes 1.92446
lfemur -56.7173 -0.631786 -11.2298
ltibia 56.7028
lfoot -14.4622 7.75349
ltoes -3.69972
247
root 1.02933 14.4311 1.83571 18.4748 -5.00207 -1.78394
lowerback 3.29988 0.965742 1.41686
upperback -4.76798 1.36393 -0.426988
thorax -6.77192 0.589328 -1.36347
lowerneck -8.69 1.90751 11.654
upperneck 26.0495 0.0840663 1.26074
head 9.78656 1.28535 -1.52018
rclavicle 7.8023e-015 1.19271e-015
rhumerus 6.2526 22.3756 -78.1751
rradius 123.693
rwrist -41.2013
rhand -13.6143 -17.1436
rfingers 7.12502
rthumb 12.501 -46.7497
lclavicle 7.8023e-015 1.19271e-015
lhumerus 17.1508 -42.748 83.2486
lradius 136.552
lwrist 8.09804
lhand -28.8198 7.44773
lfingers 7.12502
lthumb -2.17766 37.4164
rfemur 9.64231 -1.15787 7.76698
rtibia 1.27222e-014
rfoot -18.1257 -35.7205
rtoes 2.1315
lfemur -57.3923 -1.12199 -11.5535
ltibia 56.5123
lfoot -14.0452 6.88865
ltoes -3.4947
